# xmcd
#
# Track frame offsets:
#	150
#	10299
#	22239
#	36248
#	50433
#	64420
#	75227
#	86379
#	98818
#	109721
#
# Disc length: 1602 seconds
#
# Revision: 1
# Processed by: cddbd v1.5.2PL0 Copyright (c) Steve Scherf et al.
# Submitted via: audiograbber 1.83.01
#
DISCID=7606400a
DTITLE=Dolly Parton and Porter Wagoner - Porter and Dolly
DYEAR=1974
DGENRE=Country
TTITLE0=Making Plans
TTITLE1=If You Go I'll Follow You
TTITLE2=Hide Me Away
TTITLE3=Someone Just Like You
TTITLE4=Little David's Harp
TTITLE5=Beneath The Sweet Magnolia Tree
TTITLE6=Touching Memories
TTITLE7=Daddy Did His Best
TTITLE8=If You Say I Can
TTITLE9=Singing On The Mountain
EXTD=
EXTT0=
EXTT1=
EXTT2=
EXTT3=
EXTT4=
EXTT5=
EXTT6=
EXTT7=
EXTT8=
EXTT9=
PLAYORDER=
